<?xml version="1.0" encoding="UTF-8" standalone="no"?>
<!-- Created with Inkscape (http://www.inkscape.org/) -->

<svg
   xmlns:dc="http://purl.org/dc/elements/1.1/"
   xmlns:cc="http://creativecommons.org/ns#"
   xmlns:rdf="http://www.w3.org/1999/02/22-rdf-syntax-ns#"
   xmlns:svg="http://www.w3.org/2000/svg"
   xmlns="http://www.w3.org/2000/svg"
   xmlns:sodipodi="http://sodipodi.sourceforge.net/DTD/sodipodi-0.dtd"
   xmlns:inkscape="http://www.inkscape.org/namespaces/inkscape"
   id="svg7384"
   sodipodi:docname="folder-documents.svg"
   version="1.1"
   inkscape:version="0.91 r"
   height="16"
   width="16">
  <metadata
     id="metadata90">
    <rdf:RDF>
      <cc:Work
         rdf:about="">
        <dc:format>image/svg+xml</dc:format>
        <dc:type
           rdf:resource="http://purl.org/dc/dcmitype/StillImage" />
        <dc:title>Gnome Symbolic Icon Theme</dc:title>
      </cc:Work>
    </rdf:RDF>
  </metadata>
  <sodipodi:namedview
     inkscape:cy="19.628293"
     pagecolor="#ffffff"
     borderopacity="1"
     showborder="true"
     inkscape:bbox-paths="false"
     guidetolerance="10"
     inkscape:window-width="1310"
     showguides="true"
     inkscape:object-nodes="true"
     inkscape:snap-bbox="true"
     inkscape:pageshadow="2"
     inkscape:guide-bbox="true"
     inkscape:snap-nodes="true"
     bordercolor="#666666"
     objecttolerance="10"
     id="namedview88"
     showgrid="false"
     inkscape:window-maximized="0"
     inkscape:window-x="20"
     inkscape:snap-global="true"
     inkscape:window-y="28"
     gridtolerance="10"
     inkscape:window-height="690"
     inkscape:snap-to-guides="true"
     inkscape:current-layer="layer13"
     inkscape:zoom="5.6568542"
     inkscape:cx="-14.54191"
     inkscape:snap-grids="true"
     inkscape:pageopacity="1">
    <inkscape:grid
       spacingx="1px"
       spacingy="1px"
       id="grid4866"
       empspacing="2"
       enabled="true"
       type="xygrid"
       snapvisiblegridlinesonly="true"
       visible="true" />
  </sodipodi:namedview>
  <title
     id="title9167">Gnome Symbolic Icon Theme</title>
  <defs
     id="defs7386" />
  <g
     inkscape:label="status"
     transform="translate(-442,-176)"
     inkscape:groupmode="layer"
     id="layer9"
     style="display:inline" />
  <g
     inkscape:label="devices"
     transform="translate(-442,-176)"
     inkscape:groupmode="layer"
     id="layer10" />
  <g
     inkscape:label="apps"
     transform="translate(-442,-176)"
     inkscape:groupmode="layer"
     id="layer11" />
  <g
     inkscape:label="actions"
     transform="translate(-442,-176)"
     inkscape:groupmode="layer"
     id="layer12" />
  <g
     inkscape:label="places"
     transform="translate(-442,-176)"
     inkscape:groupmode="layer"
     id="layer13">
    <path
       inkscape:connector-curvature="0"
       style="opacity:0.75;fill:#00000f;fill-opacity:1;stroke:none"
       d="m 442.5,178.82353 0,2.82353 0,10.35294 5.64706,0 4.70588,0 0,-7.52941 0,-0.84651 -4.80055,-4.80055 -0.84651,0 -4.70588,0 z m 0.94118,0.94118 2.79411,0 c 0.55774,0 0.97059,0.49014 0.97059,1.11765 l 0,3.58823 3.78126,0 c 0.46386,0 0.92463,0.57345 0.92463,0.99724 l 0,5.59099 -3.76471,0 -4.70588,0 0,-9.3171 0,-1.97701 z m 4.70588,0.56525 3.19944,3.19945 -3.19944,0 0,-3.19945 z"
       id="rect4156" />
    <path
       style="opacity:0.75;fill:#00000f;fill-opacity:1;stroke:none"
       d="m 447.20588,176 0,2.82353 0.84651,0 0.0947,0.0947 0,-1.97701 2.79411,0 c 0.55774,0 0.9706,0.49014 0.9706,1.11764 l 0,3.58824 3.78088,0 c 0.46386,0 0.92499,0.57303 0.92499,0.99682 l 0,5.59141 -3.7647,0 0,0.94118 4.70588,0 0,-7.52941 0,-0.84651 -4.80055,-4.80055 -0.8465,0 z m 5.64706,1.50642 3.19945,3.19946 -3.19945,0 z"
       id="path4181"
       inkscape:connector-curvature="0"
       sodipodi:nodetypes="ccccccccccccccccccccccc" />
    <path
       inkscape:connector-curvature="0"
       style="opacity:0.15;fill:#000000;fill-opacity:1;fill-rule:evenodd;stroke:none;stroke-width:1px;stroke-linecap:butt;stroke-linejoin:miter;stroke-opacity:1"
       d="m 443.44118,179.76471 0,11.29411 8.47059,0 0,-6.58823 -4.70589,0 0,-4.70588 -3.7647,0 z"
       id="path4186" />
    <path
       inkscape:connector-curvature="0"
       style="opacity:0.4;fill:#000000;fill-opacity:1;fill-rule:evenodd;stroke:none;stroke-width:1px;stroke-linecap:butt;stroke-linejoin:miter;stroke-opacity:1"
       d="m 448.14706,176.94118 0,1.97701 4.70588,4.70589 0,0.84651 0,3.7647 3.7647,0 0,-5.59099 c 0,-0.42379 -0.46078,-0.99724 -0.92463,-0.99724 l -3.78124,0 0,-3.58824 c 0,-0.6275 -0.41286,-1.11764 -0.9706,-1.11764 l -2.79411,0 z"
       id="path4191" />
  </g>
  <g
     inkscape:label="mimetypes"
     transform="translate(-442,-176)"
     inkscape:groupmode="layer"
     id="layer14" />
  <g
     inkscape:label="emblems"
     transform="translate(-442,-176)"
     inkscape:groupmode="layer"
     id="layer15"
     style="display:inline" />
</svg>
