<?xml version="1.0" encoding="UTF-8" standalone="no"?>
<!-- Created with Inkscape (http://www.inkscape.org/) -->

<svg
   xmlns:dc="http://purl.org/dc/elements/1.1/"
   xmlns:cc="http://creativecommons.org/ns#"
   xmlns:rdf="http://www.w3.org/1999/02/22-rdf-syntax-ns#"
   xmlns:svg="http://www.w3.org/2000/svg"
   xmlns="http://www.w3.org/2000/svg"
   xmlns:sodipodi="http://sodipodi.sourceforge.net/DTD/sodipodi-0.dtd"
   xmlns:inkscape="http://www.inkscape.org/namespaces/inkscape"
   id="svg7384"
   height="16"
   width="16"
   version="1.1"
   inkscape:version="0.91 r"
   sodipodi:docname="folder-publicshare.svg">
  <defs
     id="defs10" />
  <sodipodi:namedview
     pagecolor="#ffffff"
     bordercolor="#666666"
     borderopacity="1"
     objecttolerance="10000"
     gridtolerance="10"
     guidetolerance="10"
     inkscape:pageopacity="0"
     inkscape:pageshadow="2"
     inkscape:window-width="2560"
     inkscape:window-height="1547"
     id="namedview8"
     showgrid="false"
     inkscape:zoom="5.6568542"
     inkscape:cx="6.8319877"
     inkscape:cy="8.502803"
     inkscape:window-x="0"
     inkscape:window-y="28"
     inkscape:window-maximized="1"
     inkscape:current-layer="svg7384"
     showguides="false"
     inkscape:snap-path-clip="true"
     inkscape:snap-tangential="true" />
  <metadata
     id="metadata90">
    <rdf:RDF>
      <cc:Work
         rdf:about="">
        <dc:format>image/svg+xml</dc:format>
        <dc:type
           rdf:resource="http://purl.org/dc/dcmitype/StillImage" />
        <dc:title>Gnome Symbolic Icon Theme</dc:title>
      </cc:Work>
    </rdf:RDF>
  </metadata>
  <title
     id="title9167">Gnome Symbolic Icon Theme</title>
  <path
     style="opacity:0.75;fill:#000000;fill-opacity:1;stroke:none"
     d="m 8,0.9991358 a 8,8 0 0 0 -8,8 8,8 0 0 0 3.9375,6.8784722 0.55555556,0.55555556 0 0 0 0.3324653,0.111979 A 0.55555556,0.55555556 0 0 0 4.8255209,15.434032 0.55555556,0.55555556 0 0 0 4.559896,14.960073 6.8888889,6.8888889 0 0 1 1.1111111,8.9991358 6.8888889,6.8888889 0 0 1 8,2.1102469 6.8888889,6.8888889 0 0 1 14.888889,8.9991358 6.8888889,6.8888889 0 0 1 11.439236,14.958337 l 0.0017,0.0026 A 0.55555556,0.55555556 0 0 0 11.157082,15.444444 0.55555556,0.55555556 0 0 0 11.712638,16 0.55555556,0.55555556 0 0 0 12.038159,15.893229 8,8 0 0 0 16,8.9991358 a 8,8 0 0 0 -8,-8 z M 8,3.221358 a 5.7777778,5.7777778 0 0 0 -5.7777778,5.7777778 5.7777778,5.7777778 0 0 0 2.8454862,4.9687502 0.55555556,0.55555556 0 0 0 0.048611,0.02952 0.55555556,0.55555556 0 0 0 0.2664928,0.06944 0.55555556,0.55555556 0 0 0 0.5555556,-0.555556 0.55555556,0.55555556 0 0 0 -0.2994791,-0.493055 0.55555556,0.55555556 0 0 0 -0.00436,-0.0026 4.6666667,4.6666667 0 0 1 -2.3012,-4.0164772 A 4.6666667,4.6666667 0 0 1 8,4.3324691 a 4.6666667,4.6666667 0 0 1 4.666667,4.6666667 4.6666667,4.6666667 0 0 1 -2.337674,4.0373262 0.55555556,0.55555556 0 0 0 -0.278646,0.480903 0.55555556,0.55555556 0 0 0 0.555556,0.555556 0.55555556,0.55555556 0 0 0 0.277777,-0.07552 l 8.89e-4,0.0017 A 5.7777778,5.7777778 0 0 0 13.777778,8.9991358 5.7777778,5.7777778 0 0 0 8,3.221358 Z m 0,2.4444444 a 3.3333333,3.3333333 0 0 0 -3.3333333,3.3333334 3.3333333,3.3333333 0 0 0 1.625,2.8567702 0.55555556,0.55555556 0 0 0 0.033853,0.01996 0.55555556,0.55555556 0 0 0 0.011284,0.0069 0.55555556,0.55555556 0 0 0 0.2630216,0.06597 A 0.55555556,0.55555556 0 0 0 7.1553809,11.393234 0.55555556,0.55555556 0 0 0 6.871528,10.909726 2.2222222,2.2222222 0 0 1 5.7777778,8.9991358 2.2222222,2.2222222 0 0 1 8,6.7769136 2.2222222,2.2222222 0 0 1 10.222222,8.9991358 2.2222222,2.2222222 0 0 1 9.1085071,10.921879 l 8.889e-4,8.89e-4 a 0.55555556,0.55555556 0 0 0 -0.2690973,0.475694 0.55555556,0.55555556 0 0 0 0.5555555,0.555556 0.55555556,0.55555556 0 0 0 0.2682294,-0.06944 3.3333333,3.3333333 0 0 0 0.00781,-0.0052 0.55555556,0.55555556 0 0 0 0.045139,-0.02864 A 3.3333333,3.3333333 0 0 0 11.333333,8.9991358 3.3333333,3.3333333 0 0 0 8,5.6658024 Z M 8,8.1102469 A 0.88888889,0.88888889 0 0 0 7.1111111,8.9991358 0.88888889,0.88888889 0 0 0 8,9.8880247 0.88888889,0.88888889 0 0 0 8.8888889,8.9991358 0.88888889,0.88888889 0 0 0 8,8.1102469 Z"
     id="circle4186"
     inkscape:connector-curvature="0" />
</svg>
