<?xml version="1.0" encoding="UTF-8" standalone="no"?>
<!-- Created with Inkscape (http://www.inkscape.org/) -->

<svg
   xmlns:dc="http://purl.org/dc/elements/1.1/"
   xmlns:cc="http://creativecommons.org/ns#"
   xmlns:rdf="http://www.w3.org/1999/02/22-rdf-syntax-ns#"
   xmlns:svg="http://www.w3.org/2000/svg"
   xmlns="http://www.w3.org/2000/svg"
   xmlns:sodipodi="http://sodipodi.sourceforge.net/DTD/sodipodi-0.dtd"
   xmlns:inkscape="http://www.inkscape.org/namespaces/inkscape"
   id="svg7384"
   sodipodi:docname="folder-dropbox.svg"
   version="1.1"
   inkscape:version="0.91 r"
   height="16"
   width="16">
  <metadata
     id="metadata90">
    <rdf:RDF>
      <cc:Work
         rdf:about="">
        <dc:format>image/svg+xml</dc:format>
        <dc:type
           rdf:resource="http://purl.org/dc/dcmitype/StillImage" />
        <dc:title>Gnome Symbolic Icon Theme</dc:title>
      </cc:Work>
    </rdf:RDF>
  </metadata>
  <sodipodi:namedview
     inkscape:cy="-1.5061459"
     pagecolor="#ffffff"
     borderopacity="1"
     showborder="true"
     inkscape:bbox-paths="false"
     guidetolerance="10"
     inkscape:window-width="1043"
     showguides="true"
     inkscape:object-nodes="true"
     inkscape:snap-bbox="true"
     inkscape:pageshadow="2"
     inkscape:guide-bbox="true"
     inkscape:snap-nodes="true"
     bordercolor="#666666"
     objecttolerance="10"
     id="namedview88"
     showgrid="false"
     inkscape:window-maximized="0"
     inkscape:window-x="496"
     inkscape:snap-global="true"
     inkscape:window-y="173"
     gridtolerance="10"
     inkscape:window-height="953"
     inkscape:snap-to-guides="true"
     inkscape:current-layer="layer13"
     inkscape:zoom="16"
     inkscape:cx="21.256413"
     inkscape:snap-grids="true"
     inkscape:pageopacity="1">
    <inkscape:grid
       spacingx="1px"
       spacingy="1px"
       id="grid4866"
       empspacing="2"
       enabled="true"
       type="xygrid"
       snapvisiblegridlinesonly="true"
       visible="true" />
  </sodipodi:namedview>
  <title
     id="title9167">Gnome Symbolic Icon Theme</title>
  <defs
     id="defs7386" />
  <g
     inkscape:label="status"
     transform="translate(-442,-176)"
     inkscape:groupmode="layer"
     id="layer9"
     style="display:inline" />
  <g
     inkscape:label="devices"
     transform="translate(-442,-176)"
     inkscape:groupmode="layer"
     id="layer10" />
  <g
     inkscape:label="apps"
     transform="translate(-442,-176)"
     inkscape:groupmode="layer"
     id="layer11" />
  <g
     inkscape:label="actions"
     transform="translate(-442,-176)"
     inkscape:groupmode="layer"
     id="layer12" />
  <g
     inkscape:label="places"
     transform="translate(-442,-176)"
     inkscape:groupmode="layer"
     id="layer13">
    <path
       style="opacity:0.75;fill:#000000;fill-opacity:1"
       d="m 442.94271,179.09983 c -0.52232,0 -0.94271,0.42039 -0.94271,0.9427 l 0,1.34462 0,1.77778 0,0.33247 0,7.55989 c 0,0.52232 0.42039,0.94271 0.94271,0.94271 l 14.11458,0 C 457.57961,192 458,191.57961 458,191.05729 l 0,-7.89236 0,-1.77778 c 0,-0.52231 -0.42039,-0.94271 -0.94271,-0.94271 l -8.68314,0 c -0.57985,-0.0227 -0.72432,-0.28769 -1.04059,-0.70637 -0.31628,-0.41869 -0.51883,-0.63824 -0.94293,-0.63824 z m 0.51823,0.88889 2.41146,0 c 0.59356,0 0.78092,0.45116 1.0097,0.67994 0.22878,0.22878 0.8704,0.66467 1.2316,0.66467 l 8.42536,0 c 0.31682,0 0.57205,0.25523 0.57205,0.57205 l 0,0.32205 c -0.0182,-8.9e-4 -0.0353,-0.005 -0.0538,-0.005 l -14.11458,0 c -0.0185,0 -0.0356,0.004 -0.0538,0.005 l 0,-1.66667 c 0,-0.31682 0.25523,-0.57204 0.57205,-0.57204 z m 0,3.12239 13.07812,0 c 0.31682,0 0.57205,0.25523 0.57205,0.57205 l 0,6.8559 c 0,0.31682 -0.25523,0.57205 -0.57205,0.57205 l -13.07812,0 c -0.31682,0 -0.57205,-0.25523 -0.57205,-0.57205 l 0,-5.69878 0,-1.15712 c 0,-0.31682 0.25523,-0.57205 0.57205,-0.57205 z"
       id="rect4155"
       inkscape:connector-curvature="0"
       sodipodi:nodetypes="sscccsssscssczsssczssscsscssssssssscss" />
    <path
       sodipodi:nodetypes="sssssssss"
       inkscape:connector-curvature="0"
       id="path4170"
       d="m 443.46094,183.11111 13.07812,0 c 0.31682,0 0.57205,0.25523 0.57205,0.57205 l 0,6.8559 c 0,0.31682 -0.25523,0.57205 -0.57205,0.57205 l -13.07812,0 c -0.31682,0 -0.57205,-0.25523 -0.57205,-0.57205 l 0,-6.8559 c 0,-0.31682 0.25523,-0.57205 0.57205,-0.57205 z"
       style="opacity:0.2;fill:#000000;fill-opacity:0.90196078" />
    <path
       style="opacity:0.3;fill:#000000;fill-opacity:1"
       d="m 442.88889,190.22222 0,0.31684 c 0,0.31682 0.25523,0.57205 0.57205,0.57205 l 13.07812,0 c 0.31682,0 0.57205,-0.25523 0.57205,-0.57205 l 0,-0.31684 -14.22222,0 z"
       id="path4182"
       inkscape:connector-curvature="0" />
    <g
       id="g6845"
       style="fill:#020202;fill-opacity:0.66442955;stroke:none"
       transform="matrix(0.08217228,0,0,0.08217228,441.55573,107.67403)">
      <g
         transform="matrix(0.83962071,0,0,-0.83962071,87.372032,921.28125)"
         id="g2995"
         style="fill:#020202;fill-opacity:0.66442955;stroke:none">
        <path
           id="path2997"
           style="fill:#020202;fill-opacity:0.66442955;fill-rule:nonzero;stroke:none"
           d="M 0,0 -29.63,-19.346 -9.143,-35.752 20.732,-17.305 0,0 Z"
           inkscape:connector-curvature="0" />
      </g>
      <g
         transform="matrix(0.83962071,0,0,-0.83962071,62.494141,965.07477)"
         id="g2999"
         style="fill:#020202;fill-opacity:0.66442955;stroke:none">
        <path
           id="path3001"
           style="fill:#020202;fill-opacity:0.66442955;fill-rule:nonzero;stroke:none"
           d="M 0,0 29.63,-19.346 50.362,-2.04 20.487,16.407 0,0 Z"
           inkscape:connector-curvature="0" />
      </g>
      <g
         transform="matrix(0.83962071,0,0,-0.83962071,104.77938,966.7876)"
         id="g3003"
         style="fill:#020202;fill-opacity:0.66442955;stroke:none">
        <path
           id="path3005"
           style="fill:#020202;fill-opacity:0.66442955;fill-rule:nonzero;stroke:none"
           d="M 0,0 20.733,-17.306 50.362,2.04 29.875,18.447 0,0 Z"
           inkscape:connector-curvature="0" />
      </g>
      <g
         transform="matrix(0.83962071,0,0,-0.83962071,147.06461,937.52429)"
         id="g3007"
         style="fill:#020202;fill-opacity:0.66442955;stroke:none">
        <path
           id="path3009"
           style="fill:#020202;fill-opacity:0.66442955;fill-rule:nonzero;stroke:none"
           d="M 0,0 -29.629,19.346 -50.362,2.041 -20.487,-16.406 0,0 Z"
           inkscape:connector-curvature="0" />
      </g>
      <g
         transform="matrix(0.83962071,0,0,-0.83962071,104.83026,969.91367)"
         id="g3011"
         style="fill:#020202;fill-opacity:0.66442955;stroke:none">
        <path
           id="path3013"
           style="fill:#020202;fill-opacity:0.66442955;fill-rule:nonzero;stroke:none"
           d="m 0,0 -20.793,-17.254 -8.897,5.809 0,-6.513 29.69,-17.805 29.691,17.805 0,6.513 -8.896,-5.809 L 0,0 Z"
           inkscape:connector-curvature="0" />
      </g>
    </g>
  </g>
  <g
     inkscape:label="mimetypes"
     transform="translate(-442,-176)"
     inkscape:groupmode="layer"
     id="layer14" />
  <g
     inkscape:label="emblems"
     transform="translate(-442,-176)"
     inkscape:groupmode="layer"
     id="layer15"
     style="display:inline" />
</svg>
