<?xml version="1.0" encoding="UTF-8" standalone="no"?>
<!-- Created with Inkscape (http://www.inkscape.org/) -->

<svg
   xmlns:dc="http://purl.org/dc/elements/1.1/"
   xmlns:cc="http://creativecommons.org/ns#"
   xmlns:rdf="http://www.w3.org/1999/02/22-rdf-syntax-ns#"
   xmlns:svg="http://www.w3.org/2000/svg"
   xmlns="http://www.w3.org/2000/svg"
   xmlns:sodipodi="http://sodipodi.sourceforge.net/DTD/sodipodi-0.dtd"
   xmlns:inkscape="http://www.inkscape.org/namespaces/inkscape"
   version="1.1"
   width="16"
   height="16"
   id="svg3079"
   inkscape:version="0.91 r"
   sodipodi:docname="folder-music.svg">
  <sodipodi:namedview
     pagecolor="#ffffff"
     bordercolor="#666666"
     borderopacity="1"
     objecttolerance="10"
     gridtolerance="10"
     guidetolerance="10"
     inkscape:pageopacity="0"
     inkscape:pageshadow="2"
     inkscape:window-width="1270"
     inkscape:window-height="984"
     id="namedview7"
     showgrid="false"
     inkscape:zoom="2.6074563"
     inkscape:cx="-92.782936"
     inkscape:cy="27.066872"
     inkscape:window-x="494"
     inkscape:window-y="28"
     inkscape:window-maximized="0"
     inkscape:current-layer="svg3079" />
  <defs
     id="defs3081" />
  <metadata
     id="metadata3084">
    <rdf:RDF>
      <cc:Work
         rdf:about="">
        <dc:format>image/svg+xml</dc:format>
        <dc:type
           rdf:resource="http://purl.org/dc/dcmitype/StillImage" />
        <dc:title></dc:title>
      </cc:Work>
    </rdf:RDF>
  </metadata>
  <path
     style="color:#bebebe;display:inline;overflow:visible;visibility:visible;opacity:0.75;fill:#000000;fill-opacity:1;fill-rule:nonzero;stroke:none;stroke-width:1;marker:none;enable-background:accumulate"
     d="M 13.950795,1.3357524e-7 6.5803059,1.9053381 C 6.0266027,2.0537021 5.580329,2.6437041 5.580329,3.2169391 l 0,9.0891999 C 5.0188594,12.01214 4.2975869,11.893146 3.5499939,12.087394 c -1.34904,0.350523 -2.1945172,1.483786 -1.9053379,2.530324 0.2891794,1.046536 1.6187733,1.630875 2.9678132,1.280352 1.076256,-0.279645 1.8182673,-1.070984 1.9365872,-1.905338 l 0.03125,-8.5892109 6.9954976,-1.874089 0,6.7776209 c -0.56147,-0.293998 -1.281874,-0.4129929 -2.029467,-0.218745 -1.34904,0.350523 -2.194517,1.483787 -1.905338,2.530324 0.28918,1.046536 1.617905,1.630875 2.966945,1.280352 1.076257,-0.279645 1.818268,-1.070983 1.936588,-1.905338 l 0.03125,-11.18116487 c 0,-0.429927 -0.266023,-0.752002 -0.624986,-0.81248099642476 z"
     id="rect2996"
     inkscape:connector-curvature="0" />
</svg>
