<?xml version="1.0" encoding="UTF-8" standalone="no"?>
<!-- Created with Inkscape (http://www.inkscape.org/) -->

<svg
   xmlns:dc="http://purl.org/dc/elements/1.1/"
   xmlns:cc="http://creativecommons.org/ns#"
   xmlns:rdf="http://www.w3.org/1999/02/22-rdf-syntax-ns#"
   xmlns:svg="http://www.w3.org/2000/svg"
   xmlns="http://www.w3.org/2000/svg"
   xmlns:sodipodi="http://sodipodi.sourceforge.net/DTD/sodipodi-0.dtd"
   xmlns:inkscape="http://www.inkscape.org/namespaces/inkscape"
   id="svg7384"
   sodipodi:docname="folder-download.svg"
   version="1.1"
   inkscape:version="0.91 r"
   height="16"
   width="16">
  <metadata
     id="metadata90">
    <rdf:RDF>
      <cc:Work
         rdf:about="">
        <dc:format>image/svg+xml</dc:format>
        <dc:type
           rdf:resource="http://purl.org/dc/dcmitype/StillImage" />
        <dc:title>Gnome Symbolic Icon Theme</dc:title>
      </cc:Work>
    </rdf:RDF>
  </metadata>
  <sodipodi:namedview
     inkscape:cy="-4.8241367"
     pagecolor="#ffffff"
     borderopacity="1"
     showborder="true"
     inkscape:bbox-paths="false"
     guidetolerance="10"
     inkscape:window-width="1033"
     showguides="true"
     inkscape:object-nodes="true"
     inkscape:snap-bbox="true"
     inkscape:pageshadow="2"
     inkscape:guide-bbox="true"
     inkscape:snap-nodes="true"
     bordercolor="#666666"
     objecttolerance="10"
     id="namedview88"
     showgrid="false"
     inkscape:window-maximized="0"
     inkscape:window-x="327"
     inkscape:snap-global="true"
     inkscape:window-y="42"
     gridtolerance="10"
     inkscape:window-height="641"
     inkscape:snap-to-guides="true"
     inkscape:current-layer="layer13"
     inkscape:zoom="2"
     inkscape:cx="-43.727283"
     inkscape:snap-grids="true"
     inkscape:pageopacity="1">
    <inkscape:grid
       spacingx="1px"
       spacingy="1px"
       id="grid4866"
       empspacing="2"
       enabled="true"
       type="xygrid"
       snapvisiblegridlinesonly="true"
       visible="true" />
  </sodipodi:namedview>
  <title
     id="title9167">Gnome Symbolic Icon Theme</title>
  <defs
     id="defs7386" />
  <g
     inkscape:label="status"
     transform="translate(-442,-176)"
     inkscape:groupmode="layer"
     id="layer9"
     style="display:inline" />
  <g
     inkscape:label="devices"
     transform="translate(-442,-176)"
     inkscape:groupmode="layer"
     id="layer10" />
  <g
     inkscape:label="apps"
     transform="translate(-442,-176)"
     inkscape:groupmode="layer"
     id="layer11" />
  <g
     inkscape:label="actions"
     transform="translate(-442,-176)"
     inkscape:groupmode="layer"
     id="layer12" />
  <g
     inkscape:label="places"
     transform="translate(-442,-176)"
     inkscape:groupmode="layer"
     id="layer13">
    <path
       style="opacity:0.75;fill:#000000;fill-opacity:1;stroke:none"
       d="m 450,176 a 8,8 0 0 0 -8,8 8,8 0 0 0 8,8 8,8 0 0 0 8,-8 8,8 0 0 0 -8,-8 z m 0,0.88889 A 7.1111111,7.1111111 0 0 1 457.11111,184 7.1111111,7.1111111 0 0 1 450,191.11111 7.1111111,7.1111111 0 0 1 442.88889,184 7.1111111,7.1111111 0 0 1 450,176.88889 Z"
       id="path4401"
       inkscape:connector-curvature="0" />
    <path
       style="opacity:0.6;fill:#000000;fill-opacity:1;stroke:none"
       d="M 450,176.88889 A 7.1111111,7.1111111 0 0 0 442.88889,184 7.1111111,7.1111111 0 0 0 450,191.11111 7.1111111,7.1111111 0 0 0 457.11111,184 7.1111111,7.1111111 0 0 0 450,176.88889 Z m -1.77778,2.66667 3.55556,0 0,4.44444 2.66666,0 L 450,189.55556 445.55556,184 l 2.66666,0 0,-4.44444 z"
       id="circle4403"
       inkscape:connector-curvature="0" />
    <path
       style="opacity:0.2;fill:#000000;fill-opacity:1;stroke:none"
       d="m 448.61198,178.66667 c -0.85062,0 -1.33333,0.51261 -1.33333,1.33333 l 0,3.11111 -1.20573,0 c -1.16325,0 -1.72039,0.74262 -0.96875,1.62847 l 4.07294,5.05209 c 0.48499,0.54978 1.00656,0.6428 1.57378,-0.0278 l 3.98783,-4.96875 c 0.89056,-0.98565 0.55437,-1.68403 -0.71007,-1.68403 l -1.41667,0 0,-3.11111 c 0,-0.7326 -0.53119,-1.33333 -1.33333,-1.33333 z m -0.38976,0.88889 3.55556,0 0,4.44444 2.66666,0 L 450,189.55556 445.55556,184 l 2.66666,0 z"
       id="path4412"
       inkscape:connector-curvature="0"
       sodipodi:nodetypes="sscsccccscssscccccccc" />
  </g>
  <g
     inkscape:label="mimetypes"
     transform="translate(-442,-176)"
     inkscape:groupmode="layer"
     id="layer14" />
  <g
     inkscape:label="emblems"
     transform="translate(-442,-176)"
     inkscape:groupmode="layer"
     id="layer15"
     style="display:inline" />
</svg>
