<?xml version="1.0" encoding="UTF-8" standalone="no"?>
<!-- Created with Inkscape (http://www.inkscape.org/) -->

<svg
   xmlns:dc="http://purl.org/dc/elements/1.1/"
   xmlns:cc="http://creativecommons.org/ns#"
   xmlns:rdf="http://www.w3.org/1999/02/22-rdf-syntax-ns#"
   xmlns:svg="http://www.w3.org/2000/svg"
   xmlns="http://www.w3.org/2000/svg"
   xmlns:sodipodi="http://sodipodi.sourceforge.net/DTD/sodipodi-0.dtd"
   xmlns:inkscape="http://www.inkscape.org/namespaces/inkscape"
   version="1.1"
   width="16"
   height="16"
   id="svg3021"
   inkscape:version="0.91 r"
   sodipodi:docname="folder-pictures.svg">
  <sodipodi:namedview
     pagecolor="#ffffff"
     bordercolor="#666666"
     borderopacity="1"
     objecttolerance="10"
     gridtolerance="10"
     guidetolerance="10"
     inkscape:pageopacity="0"
     inkscape:pageshadow="2"
     inkscape:window-width="2560"
     inkscape:window-height="1547"
     id="namedview7"
     showgrid="false"
     inkscape:zoom="3.6875"
     inkscape:cx="-41.31775"
     inkscape:cy="16.258495"
     inkscape:window-x="0"
     inkscape:window-y="28"
     inkscape:window-maximized="1"
     inkscape:current-layer="svg3021" />
  <defs
     id="defs3023" />
  <metadata
     id="metadata3026">
    <rdf:RDF>
      <cc:Work
         rdf:about="">
        <dc:format>image/svg+xml</dc:format>
        <dc:type
           rdf:resource="http://purl.org/dc/dcmitype/StillImage" />
        <dc:title></dc:title>
      </cc:Work>
    </rdf:RDF>
  </metadata>
  <path
     style="opacity:0.75;fill:#000000;fill-opacity:1;stroke:none"
     d="M 5.9826391,3 C 5.0931187,3 4.5727089,3.09657 4.0486111,3.62066 3.5245151,4.144755 3.2222564,5 2.4921875,5 l -0.59375,0 C 0.84677484,5 0,5.846775 0,6.898437 l 0,7.203126 C 0,15.153225 0.84677484,16 1.8984375,16 L 14.101563,16 C 15.15322,16 16,15.153224 16,14.101563 L 16,6.898437 C 16,5.846775 15.15322,5 14.101563,5 L 13.507812,5 C 12.777741,5 12.475482,4.144755 11.951389,3.62066 11.427291,3.096561 10.906886,3 10.017361,3 L 5.9826391,3 Z m 0.046875,1 3.9409724,0 C 10.540713,4 11.167337,4.239386 11.657986,4.730035 12.148635,5.220685 12.389562,6 13.1875,6 l 0.834201,0 C 14.563452,6 15,6.43655 15,6.978299 l 0,7.043402 C 15,14.56345 14.563452,15 14.021701,15 L 1.9782986,15 C 1.4365497,15 1,14.56345 1,14.021701 L 1,6.978299 C 1,6.43655 1.4365497,6 1.9782986,6 L 2.8125,6 C 3.610436,6 3.8513668,5.220685 4.3420139,4.730035 4.8326627,4.239386 5.459296,4 6.0295138,4 Z M 8,7.455729 a 2.5,2.5 0 0 0 -2.5,2.5 2.5,2.5 0 0 0 2.5,2.5 2.5,2.5 0 0 0 2.5,-2.5 2.5,2.5 0 0 0 -2.5,-2.5 z m 0,1 a 1.5,1.5 0 0 1 1.5,1.5 1.5,1.5 0 0 1 -1.5,1.5 1.5,1.5 0 0 1 -1.5,-1.5 1.5,1.5 0 0 1 1.5,-1.5 z"
     id="path8213"
     inkscape:connector-curvature="0" />
  <path
     style="opacity:0.5;fill:#000000;fill-opacity:1;stroke:none"
     d="M 6.0295138,4 C 5.459296,4 4.8326627,4.239386 4.3420139,4.730035 3.8513668,5.220685 3.610436,6 2.8125,6 L 1.9782986,6 C 1.4365497,6 1,6.43655 1,6.978299 l 0,7.043402 C 1,14.56345 1.4365497,15 1.9782986,15 L 14.021701,15 C 14.563452,15 15,14.56345 15,14.021701 L 15,6.978299 C 15,6.43655 14.563452,6 14.021701,6 L 13.1875,6 C 12.389562,6 12.148635,5.220685 11.657986,4.730035 11.167337,4.239386 10.540713,4 9.9704862,4 L 6.0295138,4 Z M 8,4.955729 a 5,5 0 0 1 5,5 5,5 0 0 1 -5,5 5,5 0 0 1 -5,-5 5,5 0 0 1 5,-5 z m 0,3.5 a 1.5,1.5 0 0 0 -1.5,1.5 1.5,1.5 0 0 0 1.5,1.5 1.5,1.5 0 0 0 1.5,-1.5 1.5,1.5 0 0 0 -1.5,-1.5 z"
     id="rect8180"
     inkscape:connector-curvature="0" />
  <path
     inkscape:connector-curvature="0"
     style="opacity:0.6;fill:#000000;fill-opacity:1;stroke:none"
     d="m 8,4.955729 a 5,5 0 0 0 -4.9999996,5 5,5 0 0 0 4.9999996,5 5,5 0 0 0 5,-5 5,5 0 0 0 -5,-5 z m 0,1 a 4,4 0 0 1 4,4 4,4 0 0 1 -4,4 4,4 0 0 1 -4,-4 4,4 0 0 1 4,-4 z"
     id="circle8202" />
</svg>
