<?xml version="1.0" encoding="UTF-8" standalone="no"?>
<!-- Created with Inkscape (http://www.inkscape.org/) -->

<svg
   xmlns:dc="http://purl.org/dc/elements/1.1/"
   xmlns:cc="http://creativecommons.org/ns#"
   xmlns:rdf="http://www.w3.org/1999/02/22-rdf-syntax-ns#"
   xmlns:svg="http://www.w3.org/2000/svg"
   xmlns="http://www.w3.org/2000/svg"
   xmlns:sodipodi="http://sodipodi.sourceforge.net/DTD/sodipodi-0.dtd"
   xmlns:inkscape="http://www.inkscape.org/namespaces/inkscape"
   version="1.1"
   width="16"
   height="16"
   id="svg3021"
   inkscape:version="0.91 r"
   sodipodi:docname="folder-videos.svg">
  <sodipodi:namedview
     pagecolor="#ffffff"
     bordercolor="#666666"
     borderopacity="1"
     objecttolerance="10"
     gridtolerance="10"
     guidetolerance="10"
     inkscape:pageopacity="0"
     inkscape:pageshadow="2"
     inkscape:window-width="789"
     inkscape:window-height="505"
     id="namedview7"
     showgrid="false"
     inkscape:zoom="3.6875002"
     inkscape:cx="25.365714"
     inkscape:cy="38.320388"
     inkscape:window-x="788"
     inkscape:window-y="235"
     inkscape:window-maximized="0"
     inkscape:current-layer="svg3021" />
  <defs
     id="defs3023" />
  <metadata
     id="metadata3026">
    <rdf:RDF>
      <cc:Work
         rdf:about="">
        <dc:format>image/svg+xml</dc:format>
        <dc:type
           rdf:resource="http://purl.org/dc/dcmitype/StillImage" />
        <dc:title></dc:title>
      </cc:Work>
    </rdf:RDF>
  </metadata>
  <path
     style="color:#bebebe;display:inline;overflow:visible;visibility:visible;opacity:0.75;fill:#000000;fill-opacity:1;fill-rule:nonzero;stroke:none;stroke-width:1;marker:none;enable-background:accumulate"
     id="rect3032"
     inkscape:connector-curvature="0"
     d="M 1.5,0 C 1.0568,0 0.7,0.3568 0.7,0.8 l 0,14.4 c 0,0.4432 0.3568,0.8 0.8,0.8 l 13.333333,0 c 0.4432,0 0.8,-0.3568 0.8,-0.8 l 0,-14.4 c 0,-0.4432 -0.3568,-0.8 -0.8,-0.8 L 1.5,0 Z m 0.2666667,1.066667 1.0666666,0 0,1.066666 -1.0666666,0 0,-1.066666 z m 2.6666666,0 7.4666667,0 c 0.295467,0 0.533333,0.237866 0.533333,0.533333 l 0,5.333333 c 0,0.295467 -0.237866,0.533334 -0.533333,0.533334 l -7.4666667,0 C 4.1378667,7.466667 3.9,7.2288 3.9,6.933333 L 3.9,1.6 C 3.9,1.304533 4.1378667,1.066667 4.4333333,1.066667 Z m 9.0666667,0 1.066667,0 0,1.066666 -1.066667,0 0,-1.066666 z M 1.7666667,3.2 l 1.0666666,0 0,1.066667 -1.0666666,0 0,-1.066667 z M 13.5,3.2 l 1.066667,0 0,1.066667 -1.066667,0 L 13.5,3.2 Z m -11.7333333,2.133333 1.0666666,0 0,1.066667 -1.0666666,0 0,-1.066667 z m 11.7333333,0 1.066667,0 0,1.066667 -1.066667,0 0,-1.066667 z m -11.7333333,2.133334 1.0666666,0 0,1.066666 -1.0666666,0 0,-1.066666 z m 11.7333333,0 1.066667,0 0,1.066666 -1.066667,0 0,-1.066666 z m -9.0666667,1.066666 7.4666667,0 c 0.295467,0 0.533333,0.237867 0.533333,0.533334 l 0,5.333333 c 0,0.295467 -0.237866,0.533333 -0.533333,0.533333 l -7.4666667,0 C 4.1378667,14.933333 3.9,14.695467 3.9,14.4 l 0,-5.333333 C 3.9,8.7712 4.1378667,8.533333 4.4333333,8.533333 Z M 1.7666667,9.6 l 1.0666666,0 0,1.066667 -1.0666666,0 0,-1.066667 z M 13.5,9.6 l 1.066667,0 0,1.066667 -1.066667,0 L 13.5,9.6 Z m -11.7333333,2.133333 1.0666666,0 0,1.066667 -1.0666666,0 0,-1.066667 z m 11.7333333,0 1.066667,0 0,1.066667 -1.066667,0 0,-1.066667 z m -11.7333333,2.133334 1.0666666,0 0,1.066666 -1.0666666,0 0,-1.066666 z m 11.7333333,0 1.066667,0 0,1.066666 -1.066667,0 0,-1.066666 z" />
  <path
     style="opacity:0.15;fill:#000000;fill-opacity:1;stroke:none"
     d="m 4.4331597,1.06684 c -0.2954666,0 -0.5329861,0.23752 -0.5329861,0.532986 l 0,5.333334 c 0,0.295466 0.2375195,0.533854 0.5329861,0.533854 l 7.4670143,0 c 0.295466,0 0.532986,-0.238388 0.532986,-0.533854 l 0,-5.333334 c 0,-0.295466 -0.23752,-0.532986 -0.532986,-0.532986 l -7.4670143,0 z"
     id="path8139"
     inkscape:connector-curvature="0" />
  <path
     style="opacity:0.4;fill:#000000;fill-opacity:1;stroke:none"
     d="m 4.4331597,8.532986 c -0.2954666,0 -0.5329861,0.238388 -0.5329861,0.533854 l 0,5.333334 c 0,0.295466 0.2375195,0.532986 0.5329861,0.532986 l 7.4670143,0 c 0.295466,0 0.532986,-0.23752 0.532986,-0.532986 l 0,-5.333334 c 0,-0.295466 -0.23752,-0.533854 -0.532986,-0.533854 l -7.4670143,0 z"
     id="rect4136"
     inkscape:connector-curvature="0" />
</svg>
