<?xml version="1.0" encoding="UTF-8" standalone="no"?>
<!-- Created with Inkscape (http://www.inkscape.org/) -->

<svg
   xmlns:dc="http://purl.org/dc/elements/1.1/"
   xmlns:cc="http://creativecommons.org/ns#"
   xmlns:rdf="http://www.w3.org/1999/02/22-rdf-syntax-ns#"
   xmlns:svg="http://www.w3.org/2000/svg"
   xmlns="http://www.w3.org/2000/svg"
   xmlns:sodipodi="http://sodipodi.sourceforge.net/DTD/sodipodi-0.dtd"
   xmlns:inkscape="http://www.inkscape.org/namespaces/inkscape"
   id="svg7384"
   sodipodi:docname="user-trash.svg"
   version="1.1"
   inkscape:version="0.91 r"
   height="16"
   width="16">
  <metadata
     id="metadata90">
    <rdf:RDF>
      <cc:Work
         rdf:about="">
        <dc:format>image/svg+xml</dc:format>
        <dc:type
           rdf:resource="http://purl.org/dc/dcmitype/StillImage" />
        <dc:title>Gnome Symbolic Icon Theme</dc:title>
      </cc:Work>
    </rdf:RDF>
  </metadata>
  <sodipodi:namedview
     inkscape:cy="20.634996"
     pagecolor="#ffffff"
     borderopacity="1"
     showborder="true"
     inkscape:bbox-paths="false"
     guidetolerance="10"
     inkscape:window-width="1033"
     showguides="true"
     inkscape:object-nodes="true"
     inkscape:snap-bbox="true"
     inkscape:pageshadow="2"
     inkscape:guide-bbox="true"
     inkscape:snap-nodes="true"
     bordercolor="#666666"
     objecttolerance="10"
     id="namedview88"
     showgrid="false"
     inkscape:window-maximized="0"
     inkscape:window-x="486"
     inkscape:snap-global="true"
     inkscape:window-y="43"
     gridtolerance="10"
     inkscape:window-height="641"
     inkscape:snap-to-guides="true"
     inkscape:current-layer="layer13"
     inkscape:zoom="2"
     inkscape:cx="-9.898248"
     inkscape:snap-grids="true"
     inkscape:pageopacity="1">
    <inkscape:grid
       spacingx="1px"
       spacingy="1px"
       id="grid4866"
       empspacing="2"
       enabled="true"
       type="xygrid"
       snapvisiblegridlinesonly="true"
       visible="true" />
  </sodipodi:namedview>
  <title
     id="title9167">Gnome Symbolic Icon Theme</title>
  <defs
     id="defs7386" />
  <g
     inkscape:label="status"
     transform="translate(-442,-176)"
     inkscape:groupmode="layer"
     id="layer9"
     style="display:inline" />
  <g
     inkscape:label="devices"
     transform="translate(-442,-176)"
     inkscape:groupmode="layer"
     id="layer10" />
  <g
     inkscape:label="apps"
     transform="translate(-442,-176)"
     inkscape:groupmode="layer"
     id="layer11" />
  <g
     inkscape:label="actions"
     transform="translate(-442,-176)"
     inkscape:groupmode="layer"
     id="layer12" />
  <g
     inkscape:label="places"
     transform="translate(-442,-176)"
     inkscape:groupmode="layer"
     id="layer13">
    <path
       inkscape:connector-curvature="0"
       style="opacity:0.75;fill:#000000;fill-opacity:1;stroke:none"
       d="m 444.72816,176.09087 c -0.39748,0 -0.64352,0.32693 -0.71747,0.71747 l -1.99644,10.5437 c -0.0106,0.056 -0.009,0.11022 -0.002,0.16279 -0.0147,0.0678 -0.0186,0.13821 0.002,0.21154 l 0.99822,3.55616 c 0.10742,0.38269 0.31999,0.71747 0.71747,0.71747 l 12.54014,0 c 0.39747,0 0.61005,-0.33478 0.71747,-0.71747 l 0.99822,-3.55616 c 0.0206,-0.0733 0.0167,-0.14374 0.002,-0.21154 0.007,-0.0526 0.009,-0.10683 -0.002,-0.16279 l -1.99644,-10.5437 c -0.074,-0.39054 -0.32,-0.71747 -0.71747,-0.71747 l -10.5437,0 z m 0.99822,0.99822 8.54726,0 c 0.39748,0 0.64352,0.32693 0.71747,0.71747 l 1.62698,8.596 c 0.0851,0.44941 -0.0418,0.60634 -0.54298,0.60634 l -2.58133,0 0,0.5459 -0.001,0 a 3.4937698,1.4973299 0 0 1 0.001,0.0156 3.4937698,1.4973299 0 0 1 -3.49377,1.49733 3.4937698,1.4973299 0 0 1 -3.49377,-1.49733 3.4937698,1.4973299 0 0 1 0.002,-0.0156 l -0.002,0 0,-0.5459 -1.01479,0 -0.0331,0 -1.58799,0 c -0.40357,0.002 -0.59468,-0.1491 -0.46987,-0.70773 l 1.60846,-8.49464 c 0.074,-0.39054 0.31999,-0.71747 0.71747,-0.71747 z m -2.33763,10.98042 2.08905,0 a 4.6167673,2.5735358 0 0 0 2.21383,1.71374 4.6167673,2.5735358 0 0 0 4.61676,0 4.6167673,2.5735358 0 0 0 2.20895,-1.71374 l 2.09393,0 -0.62194,2.2148 c -0.10742,0.38269 -0.32,0.71747 -0.71747,0.71747 l -10.5437,0 c -0.39748,0 -0.61005,-0.33478 -0.71747,-0.71747 l -0.62194,-2.2148 z"
       id="rect4164" />
    <path
       inkscape:connector-curvature="0"
       style="opacity:0.6;fill:#1a1a1a;fill-rule:evenodd;stroke:none;stroke-width:1px;stroke-linecap:butt;stroke-linejoin:miter;stroke-opacity:1"
       d="m 443.38875,188.06951 0.62194,2.2148 c 0.10742,0.38269 0.31999,0.71747 0.71747,0.71747 l 10.5437,0 c 0.39747,0 0.61005,-0.33478 0.71747,-0.71747 l 0.62194,-2.2148 -2.09393,0 a 4.6167673,2.5735358 0 0 1 -2.20895,1.71374 4.6167673,2.5735358 0 0 1 -4.61676,0 4.6167673,2.5735358 0 0 1 -2.21383,-1.71374 l -2.08905,0 z"
       id="path4213" />
    <path
       style="opacity:0.3;fill:#1a1a1a;fill-opacity:1;stroke:none"
       d="m 446.00713,179.08553 -0.0712,0.99822 8.10176,0 -0.076,-0.99822 -7.95457,0 z m -0.14233,1.99644 -0.0711,0.99822 8.39518,0 -0.076,-0.99822 -8.24799,0 z m -0.14232,1.99644 -0.0712,0.99822 8.68958,0 -0.076,-0.99822 -8.54238,0 z m -0.1433,1.99644 -0.0712,0.99822 8.98398,0 -0.076,-0.99822 -8.83679,0 z"
       id="rect4219"
       inkscape:connector-curvature="0" />
  </g>
  <g
     inkscape:label="mimetypes"
     transform="translate(-442,-176)"
     inkscape:groupmode="layer"
     id="layer14" />
  <g
     inkscape:label="emblems"
     transform="translate(-442,-176)"
     inkscape:groupmode="layer"
     id="layer15"
     style="display:inline" />
</svg>
