<?xml version="1.0" encoding="UTF-8" standalone="no"?>
<!-- Created with Inkscape (http://www.inkscape.org/) -->

<svg
   xmlns:dc="http://purl.org/dc/elements/1.1/"
   xmlns:cc="http://creativecommons.org/ns#"
   xmlns:rdf="http://www.w3.org/1999/02/22-rdf-syntax-ns#"
   xmlns:svg="http://www.w3.org/2000/svg"
   xmlns="http://www.w3.org/2000/svg"
   xmlns:sodipodi="http://sodipodi.sourceforge.net/DTD/sodipodi-0.dtd"
   xmlns:inkscape="http://www.inkscape.org/namespaces/inkscape"
   id="svg7384"
   sodipodi:docname="user-desktop.svg"
   version="1.1"
   inkscape:version="0.91 r"
   height="16"
   width="16">
  <metadata
     id="metadata90">
    <rdf:RDF>
      <cc:Work
         rdf:about="">
        <dc:format>image/svg+xml</dc:format>
        <dc:type
           rdf:resource="http://purl.org/dc/dcmitype/StillImage" />
        <dc:title>Gnome Symbolic Icon Theme</dc:title>
      </cc:Work>
    </rdf:RDF>
  </metadata>
  <sodipodi:namedview
     inkscape:cy="32.754159"
     pagecolor="#ffffff"
     borderopacity="1"
     showborder="true"
     inkscape:bbox-paths="false"
     guidetolerance="10"
     inkscape:window-width="1310"
     showguides="true"
     inkscape:object-nodes="true"
     inkscape:snap-bbox="true"
     inkscape:pageshadow="2"
     inkscape:guide-bbox="true"
     inkscape:snap-nodes="true"
     bordercolor="#666666"
     objecttolerance="10"
     id="namedview88"
     showgrid="false"
     inkscape:window-maximized="0"
     inkscape:window-x="44"
     inkscape:snap-global="true"
     inkscape:window-y="28"
     gridtolerance="10"
     inkscape:window-height="690"
     inkscape:snap-to-guides="true"
     inkscape:current-layer="layer13"
     inkscape:zoom="5.6568542"
     inkscape:cx="9.2882817"
     inkscape:snap-grids="true"
     inkscape:pageopacity="1">
    <inkscape:grid
       spacingx="1px"
       spacingy="1px"
       id="grid4866"
       empspacing="2"
       enabled="true"
       type="xygrid"
       snapvisiblegridlinesonly="true"
       visible="true" />
  </sodipodi:namedview>
  <title
     id="title9167">Gnome Symbolic Icon Theme</title>
  <defs
     id="defs7386" />
  <g
     inkscape:label="status"
     transform="translate(-442,-176)"
     inkscape:groupmode="layer"
     id="layer9"
     style="display:inline" />
  <g
     inkscape:label="devices"
     transform="translate(-442,-176)"
     inkscape:groupmode="layer"
     id="layer10" />
  <g
     inkscape:label="apps"
     transform="translate(-442,-176)"
     inkscape:groupmode="layer"
     id="layer11" />
  <g
     inkscape:label="actions"
     transform="translate(-442,-176)"
     inkscape:groupmode="layer"
     id="layer12" />
  <g
     inkscape:label="places"
     transform="translate(-442,-176)"
     inkscape:groupmode="layer"
     id="layer13">
    <path
       inkscape:connector-curvature="0"
       style="opacity:0.75;fill:#000000;fill-opacity:1"
       d="m 443.82379,179.55556 c -1.01039,0 -1.82379,0.81339 -1.82379,1.82378 l 0,8.79687 C 442,191.1866 442.8134,192 443.82379,192 l 12.35242,0 C 457.1866,192 458,191.1866 458,190.17621 l 0,-8.79687 c 0,-1.01039 -0.8134,-1.82378 -1.82379,-1.82378 l -12.35242,0 z m -0.0521,0.88888 12.4566,0 c 0.48902,0 0.88281,0.3938 0.88281,0.88282 l 0,0.006 -14.22222,0 0,-0.006 c 0,-0.48902 0.39379,-0.88282 0.88281,-0.88282 z m -0.88281,1.77778 14.22222,0 0,8.00608 c 0,0.48902 -0.39379,0.88281 -0.88281,0.88281 l -12.4566,0 c -0.48902,0 -0.88281,-0.39379 -0.88281,-0.88281 l 0,-8.00608 z"
       id="rect4156" />
    <path
       inkscape:connector-curvature="0"
       style="opacity:0.2;fill:#000000;fill-opacity:0.90196078"
       d="m 442.88889,182.22222 0,8.00608 c 0,0.48902 0.39379,0.88281 0.88281,0.88281 l 2.67274,0 0,-1.77778 7.11112,0 0,1.77778 2.67274,0 c 0.48902,0 0.88281,-0.39379 0.88281,-0.88281 l 0,-8.00608 -14.22222,0 z"
       id="rect4169" />
    <path
       inkscape:connector-curvature="0"
       style="opacity:0.5;fill:#000000;fill-opacity:1;stroke:none"
       d="m 445.98785,188.88889 c -0.2394,0 -0.43229,0.1929 -0.43229,0.43229 l 0,1.78993 0.88888,0 0,-1.77778 1.77778,0 0,1.77778 0.88889,0 0,-1.77778 1.77778,0 0,1.77778 0.88889,0 0,-1.77778 1.77778,0 0,1.77778 0.88888,0 0,-1.78993 c 0,-0.23939 -0.19289,-0.43229 -0.43229,-0.43229 l -8.0243,0 z"
       id="rect4175" />
  </g>
  <g
     inkscape:label="mimetypes"
     transform="translate(-442,-176)"
     inkscape:groupmode="layer"
     id="layer14" />
  <g
     inkscape:label="emblems"
     transform="translate(-442,-176)"
     inkscape:groupmode="layer"
     id="layer15"
     style="display:inline" />
</svg>
